# xmcd
#
# Track frame offsets:
#	150
#	12607
#	25848
#	39710
#	52110
#	65912
#	84617
#	97146
#	109402
#	123151
#	144792
#	159087
#	170667
#	182113
#	200330
#	213568
#	238014
#	249233
#
# Disc length: 3498 seconds
#
# Revision: 0
# Processed by: cddbd v1.5.1PL0 Copyright (c) Steve Scherf et al.
# Submitted via: EasyCDDAExtractor 4.6.9.1
#
DISCID=040da812
DTITLE=Bobby Bare - 18 Golden Greats
DYEAR=1900
DGENRE=Country
TTITLE0=500 Miles From Home
TTITLE1=Detroit City
TTITLE2=Ride Me Down Easy
TTITLE3=Green, Green Grass Of Home
TTITLE4=Marie Laveau
TTITLE5=Tequila Sheila
TTITLE6=Four Strong Winds 
TTITLE7=Street Of Baltimore
TTITLE8=Miller's Cave
TTITLE9=Numbers
TTITLE10=All American Boy
TTITLE11=Shame On Me
TTITLE12=Daddy What If?
TTITLE13=The Jogger
TTITLE14=The Mermaid Song
TTITLE15=The Winner
TTITLE16=Please Don't Tell Me How The Story Ends
TTITLE17=Come Sundown (She'll Be Gone)
EXTD=
EXTT0=
EXTT1=
EXTT2=
EXTT3=
EXTT4=
EXTT5=
EXTT6=
EXTT7=
EXTT8=
EXTT9=
EXTT10=
EXTT11=
EXTT12=
EXTT13=
EXTT14=
EXTT15=
EXTT16=
EXTT17=
PLAYORDER=
